<svg width="84" height="51" viewBox="0 0 84 51" fill="none" xmlns="http://www.w3.org/2000/svg">
<path d="M14 29.2653C17.85 29.2653 21 25.5026 21 20.9038C21 16.3049 17.85 12.5423 14 12.5423C10.15 12.5423 7 16.3049 7 20.9038C7 25.5026 10.15 29.2653 14 29.2653ZM17.955 33.8641C16.66 33.6133 15.365 33.446 14 33.446C10.535 33.446 7.245 34.324 4.27 35.8709C1.68 37.2087 0 40.2189 0 43.6053V50.1691H15.75V43.438C15.75 39.968 16.555 36.707 17.955 33.8641ZM70 29.2653C73.85 29.2653 77 25.5026 77 20.9038C77 16.3049 73.85 12.5423 70 12.5423C66.15 12.5423 63 16.3049 63 20.9038C63 25.5026 66.15 29.2653 70 29.2653ZM84 43.6053C84 40.2189 82.32 37.2087 79.73 35.8709C76.755 34.324 73.465 33.446 70 33.446C68.635 33.446 67.34 33.6133 66.045 33.8641C67.445 36.707 68.25 39.968 68.25 43.438V50.1691H84V43.6053ZM56.84 31.9828C52.745 29.8088 47.705 28.2201 42 28.2201C36.295 28.2201 31.255 29.8506 27.16 31.9828C23.38 33.9895 21 38.5048 21 43.438V50.1691H63V43.438C63 38.5048 60.62 33.9895 56.84 31.9828ZM28.245 41.8076C28.56 40.846 28.7 40.1771 31.43 38.9228C34.825 37.3341 38.395 36.5816 42 36.5816C45.605 36.5816 49.175 37.3341 52.57 38.9228C55.265 40.1771 55.405 40.846 55.755 41.8076H28.245ZM42 8.36151C43.925 8.36151 45.5 10.2429 45.5 12.5423C45.5 14.8417 43.925 16.723 42 16.723C40.075 16.723 38.5 14.8417 38.5 12.5423C38.5 10.2429 40.075 8.36151 42 8.36151ZM42 0C36.19 0 31.5 5.60221 31.5 12.5423C31.5 19.4823 36.19 25.0845 42 25.0845C47.81 25.0845 52.5 19.4823 52.5 12.5423C52.5 5.60221 47.81 0 42 0Z" fill="url(#paint0_linear)"/>
<defs>
<linearGradient id="paint0_linear" x1="42" y1="0" x2="42" y2="50.1691" gradientUnits="userSpaceOnUse">
<stop stop-color="#2590A2"/>
<stop offset="1" stop-color="#5ADDE3" stop-opacity="0.94"/>
</linearGradient>
</defs>
</svg>
