<svg width="109" height="102" viewBox="0 0 109 102" fill="none" xmlns="http://www.w3.org/2000/svg">
<path d="M49.9596 21.25H59.043V80.75H49.9596V21.25ZM22.7096 51C27.7055 51 31.793 47.175 31.793 42.5C31.793 37.825 27.7055 34 22.7096 34C17.7138 34 13.6263 37.825 13.6263 42.5C13.6263 47.175 17.7138 51 22.7096 51ZM35.3355 57.715C31.475 56.1425 27.2059 55.25 22.7096 55.25C18.2134 55.25 13.9442 56.1425 10.0838 57.715C6.72297 59.075 4.54297 62.135 4.54297 65.5775V68H40.8763V65.5775C40.8763 62.135 38.6963 59.075 35.3355 57.715ZM86.293 51C91.2888 51 95.3763 47.175 95.3763 42.5C95.3763 37.825 91.2888 34 86.293 34C81.2971 34 77.2096 37.825 77.2096 42.5C77.2096 47.175 81.2971 51 86.293 51ZM98.9188 57.715C95.0584 56.1425 90.7892 55.25 86.293 55.25C81.7967 55.25 77.5275 56.1425 73.6671 57.715C70.3063 59.075 68.1263 62.135 68.1263 65.5775V68H104.46V65.5775C104.46 62.135 102.28 59.075 98.9188 57.715Z" fill="url(#paint0_linear)"/>
<defs>
<linearGradient id="paint0_linear" x1="54.5013" y1="21.25" x2="54.5013" y2="80.75" gradientUnits="userSpaceOnUse">
<stop stop-color="#2591A3"/>
<stop offset="1" stop-color="#5ADEE4"/>
</linearGradient>
</defs>
</svg>
